<svg width="23" height="29" viewBox="0 0 23 29" fill="none" xmlns="http://www.w3.org/2000/svg">
<g clip-path="url(#clip0_25_43)">
<path d="M23.2833 8.38542L15.2187 0.320833C15.0139 0.11566 14.7357 0.0002625 14.4458 0H10.8437C9.78019 0 8.76005 0.422523 8.00796 1.17463C7.25586 1.92672 6.83333 2.94678 6.83333 4.01042V5.83333H5.01042C3.94678 5.83333 2.92672 6.25586 2.17463 7.00796C1.42252 7.76005 1 8.78012 1 9.84375V24.4271C1 25.4906 1.42252 26.5107 2.17463 27.2628C2.92672 28.015 3.94678 28.4375 5.01042 28.4375H15.2187C16.2823 28.4375 17.3024 28.015 18.0545 27.2628C18.8067 26.5107 19.2292 25.4906 19.2292 24.4271V22.6042H19.5937C20.6573 22.6042 21.6774 22.1817 22.4295 21.4295C23.1817 20.6774 23.6042 19.6573 23.6042 18.5938V9.11458C23.5926 8.83983 23.4782 8.57951 23.2833 8.38542ZM15.5833 3.73333L19.8708 8.02083H15.5833V3.73333ZM17.0417 24.4271C17.0417 24.9105 16.8496 25.3743 16.5078 25.7161C16.1659 26.0579 15.7022 26.25 15.2187 26.25H5.01042C4.52695 26.25 4.06329 26.0579 3.72142 25.7161C3.37956 25.3743 3.1875 24.9105 3.1875 24.4271V9.84375C3.1875 9.36028 3.37956 8.89662 3.72142 8.55476C4.06329 8.2129 4.52695 8.02083 5.01042 8.02083H6.83333V18.5938C6.83333 19.6573 7.25586 20.6774 8.00796 21.4295C8.76005 22.1817 9.78019 22.6042 10.8437 22.6042H17.0417V24.4271ZM19.5937 20.4167H10.8437C10.3603 20.4167 9.89656 20.2246 9.55473 19.8828C9.2129 19.5409 9.02083 19.0772 9.02083 18.5938V4.01042C9.02083 3.52695 9.2129 3.06329 9.55473 2.72142C9.89656 2.37956 10.3603 2.1875 10.8437 2.1875H13.3958V9.11458C13.3996 9.40349 13.516 9.6795 13.7203 9.88381C13.9246 10.0881 14.2007 10.2046 14.4896 10.2083H21.4167V18.5938C21.4167 19.0772 21.2246 19.5409 20.8828 19.8828C20.5409 20.2246 20.0772 20.4167 19.5937 20.4167Z" fill="white"/>
<path d="M12 14.4375L14.4375 16.875L19.3 12" stroke="white" stroke-width="1.5" stroke-linecap="round" stroke-linejoin="round"/>
</g>
<defs>
<clipPath id="clip0_25_43">
<rect width="23" height="29" fill="white"/>
</clipPath>
</defs>
</svg>
