<svg width="30" height="30" viewBox="0 0 30 30" fill="none" xmlns="http://www.w3.org/2000/svg">
<g clip-path="url(#clip0_30_2)">
<path d="M28.9502 0C29.53 0 30 0.469951 30 1.04967V13.4667C30 19.0154 25.5014 23.5135 19.9521 23.5135L3.45746 23.5125L8.15433 28.2084C8.56425 28.6183 8.56421 29.2829 8.15425 29.6929C7.74428 30.1029 7.07964 30.1029 6.66972 29.693L0.307783 23.3311C-0.102137 22.9211 -0.102101 22.2565 0.307863 21.8465L6.67049 15.4839C7.08045 15.0739 7.7451 15.0739 8.15502 15.4838C8.56494 15.8937 8.5649 16.5584 8.15494 16.9683L3.70796 21.414L19.9521 21.4142C24.3418 21.4142 27.9004 17.856 27.9004 13.4667V1.04967C27.9004 0.469951 28.3704 0 28.9502 0Z" fill="#444444"/>
</g>
<defs>
<clipPath id="clip0_30_2">
<rect width="30" height="30" fill="white"/>
</clipPath>
</defs>
</svg>
