<svg width="50" height="50" viewBox="0 0 50 50" fill="none" xmlns="http://www.w3.org/2000/svg">
<path d="M8.48835 6.2371C8.60966 4.09108 9.12229 3.15787 10.5923 2.40848C12.1741 1.60189 14.6689 1.97725 17.6045 3.46379C18.8689 4.10437 18.9976 4.11742 21.2136 3.83331C24.159 3.45554 27.9508 3.45687 30.6694 3.83677C32.7252 4.12406 32.8602 4.10971 34.1277 3.46779C38.2946 1.35768 41.5844 1.49575 42.7756 3.83064C43.3702 4.9961 43.4806 8.02025 43.0196 10.5145C42.764 11.8973 42.7911 12.0699 43.4069 12.9774C47.7396 19.3622 44.6177 29.7117 37.1933 33.574C36.6252 33.8696 36.1465 34.0525 35.7563 34.2015C34.5581 34.659 34.1944 34.7979 34.6348 36.9038C34.8469 37.9167 35.1023 40.435 35.2027 42.5004C35.3842 46.2338 35.3815 46.2598 34.7267 47.0215C33.8354 48.0575 32.5508 48.075 31.6804 47.0629C31.1127 46.4029 31.0573 46.0913 31.0573 43.5448C31.0573 39.7817 30.6448 37.2804 29.6702 35.1371C28.5113 32.5865 29.3704 31.6354 32.0208 31.0654C35.7048 30.2729 38.5821 27.9994 40.1858 24.6138C41.7106 21.3954 41.9404 16.948 39.1838 14.2431C38.3998 13.3115 38.3452 12.4676 38.905 9.92312C39.1142 8.9721 39.2896 7.74519 39.2948 7.19637C39.3027 6.32967 39.2238 6.19879 38.6915 6.19879C38.3546 6.19879 37.0675 6.68881 35.8317 7.28762L33.8592 8.24366C33.6798 8.33056 33.4792 8.36398 33.2813 8.34127C28.2656 7.76556 23.4998 7.75666 18.4596 8.34352C18.261 8.36664 18.0595 8.33323 17.8795 8.24589L15.908 7.28923C14.6721 6.68933 13.3851 6.19879 13.0483 6.19879C12.2696 6.19879 12.2579 6.77366 12.9677 10.1891C13.4012 12.2751 13.693 12.7399 12.4396 14.4078C10.561 16.9079 10.0917 20.0124 11.0991 23.2742C12.3688 27.3846 15.4781 30.1615 19.8495 31.0879C22.4846 31.6465 23.1733 32.3752 22.1671 35.3969C21.375 37.7748 20.8742 38.3877 19.7231 38.3877C18.1743 38.3877 17.2041 37.0461 17.738 35.6421C17.9732 35.0234 17.9032 34.9573 16.4523 34.4281C12.0233 32.8134 8.63572 29.194 7.08693 24.4215C5.88983 20.733 6.41656 15.9321 8.33699 13.0303C8.99087 12.0423 9.00099 11.9585 8.69585 10.067C8.5232 8.99631 8.42983 7.273 8.48835 6.2371Z" fill="#47C9B9"/>
<path d="M6.94174 33.2196C6.30351 32.2623 5.01003 32.0036 4.05268 32.6419C3.09534 33.2801 2.83664 34.5736 3.47487 35.5309C3.94605 36.2378 4.50974 36.8184 4.98843 37.2969C5.07668 37.3853 5.16243 37.4705 5.24616 37.5536C5.64714 37.9519 6.00118 38.3036 6.35676 38.7211C7.14324 39.6442 7.92785 40.8875 8.37376 43.1171C8.57239 44.1103 9.28624 44.6453 9.68178 44.879C10.1107 45.1323 10.5794 45.2817 10.9651 45.379C11.7541 45.578 12.7119 45.6813 13.6208 45.7415C14.6187 45.8078 15.6998 45.8292 16.6667 45.835C16.6674 46.9848 17.5998 47.9169 18.75 47.9169C19.9006 47.9169 20.8333 46.9842 20.8333 45.8336V43.7503C20.8333 42.5996 19.9006 41.6669 18.75 41.6669C18.5536 41.6669 18.3411 41.6675 18.116 41.6684C16.8934 41.6721 15.2998 41.6769 13.8962 41.584C13.2194 41.5392 12.663 41.4757 12.255 41.398C11.6267 38.9315 10.6117 37.2905 9.52862 36.019C9.04982 35.4571 8.55403 34.9655 8.15076 34.5655C8.07526 34.4907 8.00301 34.419 7.9347 34.3507C7.46939 33.8855 7.16501 33.5546 6.94174 33.2196Z" fill="#47C9B9"/>
</svg>
