<svg width="50" height="50" viewBox="0 0 50 50" fill="none" xmlns="http://www.w3.org/2000/svg">
<rect width="50" height="50" rx="25" fill="#47C9B9"/>
<path fill-rule="evenodd" clip-rule="evenodd" d="M36.1111 47.2223C37.3378 47.2223 38.3333 46.2267 38.3333 45.0001V42.7778C38.3333 41.5512 37.3378 40.5556 36.1111 40.5556C34.8844 40.5556 33.8889 41.5512 33.8889 42.7778V45.0001C33.8889 46.2267 34.8844 47.2223 36.1111 47.2223ZM38.3333 33.8889H33.8889H18.3333C17.1067 33.8889 16.1111 32.8934 16.1111 31.6667V20.5556C16.1111 19.3289 15.1155 18.3334 13.8889 18.3334C12.6622 18.3334 11.6667 19.3289 11.6667 20.5556V33.8889C11.6667 36.3445 13.6555 38.3334 16.1111 38.3334H33.8889H38.3333H45C46.2267 38.3334 47.2222 37.3378 47.2222 36.1112C47.2222 34.8845 46.2267 33.8889 45 33.8889H38.3333ZM16.1111 16.1112H31.6667C32.8933 16.1112 33.8889 17.1067 33.8889 18.3334V29.4445C33.8889 30.6712 34.8844 31.6667 36.1111 31.6667C37.3378 31.6667 38.3333 30.6712 38.3333 29.4445V16.1112C38.3333 13.6556 36.3444 11.6667 33.8889 11.6667H16.1111H11.6667H4.99999C3.77333 11.6667 2.77777 12.6623 2.77777 13.8889C2.77777 15.1156 3.77333 16.1112 4.99999 16.1112H11.6667H16.1111ZM16.1111 5.00005V7.22228C16.1111 8.44894 15.1155 9.4445 13.8889 9.4445C12.6622 9.4445 11.6667 8.44894 11.6667 7.22228V5.00005C11.6667 3.77339 12.6622 2.77783 13.8889 2.77783C15.1155 2.77783 16.1111 3.77339 16.1111 5.00005Z" fill="white"/>
</svg>
