<svg width="20" height="20" viewBox="0 0 20 20" fill="none" xmlns="http://www.w3.org/2000/svg">
<g clip-path="url(#clip0_48_11)">
<path d="M6 6L6.54045 5.60967C6.37115 5.37525 6.07003 5.27671 5.79489 5.36567C5.51975 5.45464 5.33333 5.71084 5.33333 6H6ZM10 18.6667C5.21353 18.6667 1.33333 14.7865 1.33333 10H0C0 15.5228 4.47715 20 10 20V18.6667ZM18.6667 10C18.6667 14.7865 14.7865 18.6667 10 18.6667V20C15.5228 20 20 15.5228 20 10H18.6667ZM10 1.33333C14.7865 1.33333 18.6667 5.21353 18.6667 10H20C20 4.47715 15.5228 0 10 0V1.33333ZM10 0C4.47715 0 0 4.47715 0 10H1.33333C1.33333 5.21353 5.21353 1.33333 10 1.33333V0ZM6.66667 16V6H5.33333V16H6.66667ZM5.45955 6.39033L14.1263 18.3903L15.2071 17.6097L6.54045 5.60967L5.45955 6.39033ZM13.3333 5.33333V13.3333H14.6667V5.33333H13.3333Z" fill="#47C9B9"/>
</g>
<defs>
<clipPath id="clip0_48_11">
<rect width="20" height="20" fill="white"/>
</clipPath>
</defs>
</svg>