<svg width="20" height="20" viewBox="0 0 20 20" fill="none" xmlns="http://www.w3.org/2000/svg">
<path d="M18.4143 4.44642L10.8666 0.172427C10.6247 0.0588712 10.3608 0 10.0936 0C9.82642 0 9.56251 0.0588712 9.32065 0.172427L1.77296 4.44642C1.54089 4.58038 1.34763 4.77234 1.21212 5.0035C1.07662 5.23466 1.00352 5.49707 1 5.765V14.2221C1.00352 14.49 1.07662 14.7524 1.21212 14.9836C1.34763 15.2147 1.54089 15.4067 1.77296 15.5406L3.77355 16.6773C4.29618 16.9862 4.89439 17.1436 5.50134 17.132C6.91085 17.132 7.72927 16.2681 7.72927 14.8131V6.49249C7.72927 6.43219 7.70532 6.37437 7.66269 6.33173C7.62005 6.2891 7.56223 6.26515 7.50193 6.26515H6.5471C6.48681 6.26515 6.42898 6.2891 6.38635 6.33173C6.34371 6.37437 6.31976 6.43219 6.31976 6.49249V14.8131C6.31976 15.4952 5.63774 16.1317 4.54651 15.5861L2.45498 14.4039C2.42674 14.3828 2.40383 14.3553 2.38804 14.3237C2.37226 14.2922 2.36404 14.2573 2.36404 14.2221V5.765C2.36717 5.68099 2.3993 5.60065 2.45498 5.53766L9.95721 1.30913H10.23L17.7322 5.53766C17.7879 5.60065 17.8201 5.68099 17.8232 5.765V14.2221C17.8232 14.2573 17.815 14.2922 17.7992 14.3237C17.7834 14.3553 17.7605 14.3828 17.7322 14.4039L10.23 18.6325C10.1885 18.6564 10.1415 18.669 10.0936 18.669C10.0457 18.669 9.99868 18.6564 9.95721 18.6325L8.04755 17.5412C8.02254 17.5189 7.99017 17.5065 7.95661 17.5065C7.92306 17.5065 7.89069 17.5189 7.86568 17.5412L6.72898 18.0414C6.59257 18.0868 6.4107 18.1323 6.77444 18.3596L9.32065 19.7692C9.55031 19.9198 9.81897 20 10.0936 20C10.3683 20 10.6369 19.9198 10.8666 19.7692L18.4143 15.5406C18.6463 15.4067 18.8396 15.2147 18.9751 14.9836C19.1106 14.7524 19.1837 14.49 19.1872 14.2221V5.765C19.1837 5.49707 19.1106 5.23466 18.9751 5.0035C18.8396 4.77234 18.6463 4.58038 18.4143 4.44642Z" fill="#47C9B9"/>
<path d="M12.4125 12.858C10.4119 12.858 10.0027 12.4034 9.82083 11.4485C9.82083 11.4003 9.80167 11.354 9.76756 11.3199C9.73345 11.2858 9.68719 11.2667 9.63896 11.2667H8.63866C8.59042 11.2667 8.54416 11.2858 8.51006 11.3199C8.47595 11.354 8.45679 11.4003 8.45679 11.4485C8.45679 12.6762 9.13881 14.1766 12.4125 14.1766C14.7768 14.1766 16.1409 13.2673 16.1409 11.6759C16.1409 10.0845 15.0497 9.62982 12.7308 9.35701C10.4119 9.0842 10.1846 8.90233 10.1846 8.35671C10.1846 7.8111 10.3664 7.35642 12.0942 7.35642C13.822 7.35642 14.2312 7.67469 14.4586 8.67499C14.4692 8.72711 14.4978 8.77386 14.5393 8.80709C14.5808 8.84032 14.6327 8.85793 14.6859 8.85686H15.6407L15.8226 8.76592C15.8391 8.74747 15.8516 8.72586 15.8594 8.70241C15.8672 8.67895 15.8702 8.65415 15.8681 8.62952C15.7317 6.85627 14.504 6.03784 12.0942 6.03784C9.68442 6.03784 8.68413 6.9472 8.68413 8.40218C8.68413 9.85716 9.95723 10.4482 12.0033 10.6756C14.0494 10.9029 14.6859 11.2212 14.6859 11.7213C14.6859 12.2215 14.0039 12.858 12.4125 12.858Z" fill="#47C9B9"/>
</svg>
