<svg width="20" height="20" viewBox="0 0 20 20" fill="none" xmlns="http://www.w3.org/2000/svg">
<g clip-path="url(#clip0_46_2)">
<path d="M10.0005 11.7209C11.031 11.7209 11.8663 10.8856 11.8663 9.8551C11.8663 8.82462 11.031 7.98926 10.0005 7.98926C8.97001 7.98926 8.13464 8.82462 8.13464 9.8551C8.13464 10.8856 8.97001 11.7209 10.0005 11.7209Z" fill="#47C9B9" stroke="#47C9B9" stroke-width="0.25"/>
<path fill-rule="evenodd" clip-rule="evenodd" d="M10.1375 5.92234C13.3188 5.94401 16.7896 6.17609 19.1722 8.30068C19.2422 8.36318 19.3097 8.42818 19.3755 8.49527C19.9376 9.06819 20.2313 9.99319 19.7776 10.7544C18.8467 12.3174 16.7651 12.999 14.7496 13.4186C11.7355 14.0461 8.58377 14.0511 5.57084 13.4986C3.83708 13.1803 2.06415 12.6224 0.832064 11.4553C0.352479 11.0011 -0.0575233 10.4036 0.00664365 9.73861C0.110811 8.66277 1.1429 7.97235 2.01165 7.50485C4.42458 6.20651 7.3646 5.91609 10.1375 5.92234ZM9.90669 6.41109C6.89668 6.43151 3.63874 6.62359 1.31457 8.54819C1.23332 8.61527 1.15498 8.68569 1.07957 8.75944C1.03082 8.80694 0.983732 8.85652 0.938315 8.90735C0.530396 9.36569 0.389979 10.1019 0.774981 10.6524C1.16248 11.2061 1.75082 11.6057 2.35666 11.9315C4.6225 13.1499 7.30001 13.3661 9.91044 13.3753C12.5534 13.3849 15.2788 13.144 17.6134 11.937C18.5434 11.4557 19.5901 10.749 19.553 9.83902C19.5188 9.00402 18.7047 8.48819 18.0951 8.11985C17.9301 8.02027 17.7605 7.92818 17.5884 7.84151C15.2709 6.68026 12.555 6.40526 9.90669 6.41109Z" fill="#47C9B9" stroke="#47C9B9" stroke-width="0.25"/>
<path fill-rule="evenodd" clip-rule="evenodd" d="M14.2146 1.00025C15.3783 1.02984 15.9813 2.42901 16.0608 3.46235C16.0767 3.66776 16.0825 3.87402 16.08 4.08027C16.0775 4.3036 16.0654 4.52694 16.0458 4.74944C15.8004 7.50445 14.5425 10.1282 13.0612 12.5511C11.6125 14.9212 9.84582 17.2845 7.44247 18.3828C6.64788 18.7462 5.70288 18.9703 4.99954 18.5649C4.03537 18.0095 3.92995 16.7103 3.94787 15.7249C3.95245 15.4828 3.96829 15.2407 3.99329 14.9995C4.36371 11.4328 6.17163 8.05404 8.43414 5.14319C9.75415 3.44485 11.3246 1.76026 13.2808 1.15025C13.5888 1.054 13.8333 0.995668 14.2146 1.00025ZM14.1588 1.48859C12.7925 1.51025 11.5658 2.52276 10.4796 3.57485C7.62372 6.34028 5.51913 10.0182 4.67246 13.8753C4.60704 14.1741 4.55204 14.4749 4.51162 14.7778C4.48037 15.0124 4.45746 15.2482 4.44537 15.4849C4.43579 15.6732 4.43246 15.862 4.43829 16.0507C4.44246 16.1982 4.45204 16.3457 4.46829 16.4924C4.48037 16.6045 4.49662 16.7162 4.51704 16.827C4.53246 16.9091 4.55037 16.9907 4.57121 17.072C4.58829 17.1378 4.60746 17.2032 4.62913 17.2682C4.79954 17.782 5.23871 18.2728 5.8283 18.2891C7.20372 18.3266 8.49873 17.3237 9.61832 16.2337C11.5837 14.3207 13.0483 11.917 14.1925 9.39029C15.1158 7.35028 15.9604 5.13277 15.4888 2.88734C15.4708 2.80234 15.45 2.71818 15.4263 2.63484C15.4067 2.56693 15.3846 2.49984 15.3604 2.43359C15.1771 1.93401 14.7458 1.48734 14.1588 1.48859Z" fill="#47C9B9" stroke="#47C9B9" stroke-width="0.25"/>
<path fill-rule="evenodd" clip-rule="evenodd" d="M5.87869 1.01859C7.3637 1.04734 8.69746 2.05526 9.88163 3.18402C12.0425 5.24361 13.6362 7.86363 14.8454 10.6211C15.7821 12.7574 16.6437 15.1553 15.8779 17.4095C15.6367 18.1199 15.0262 18.7699 14.2125 18.7866C12.7204 18.8166 11.3375 17.7316 10.1375 16.5637C7.12703 13.6328 4.89202 9.76363 4.12619 5.66028C4.07119 5.36695 4.02743 5.07111 3.99743 4.77403C3.97285 4.53153 3.95743 4.28777 3.95327 4.04402C3.94993 3.84736 3.9541 3.65069 3.96785 3.45485C3.97702 3.32402 3.99035 3.19402 4.00827 3.06443C4.02535 2.94277 4.04702 2.82152 4.0741 2.70152C4.09202 2.62193 4.11202 2.54318 4.13494 2.46485C4.35952 1.69693 4.94369 1.01276 5.87869 1.01859ZM5.82244 1.50734C4.95286 1.52651 4.55494 2.55193 4.47494 3.27152C4.45869 3.41902 4.44869 3.56777 4.4441 3.71652C4.43827 3.90652 4.44077 4.09694 4.45035 4.28694C4.58702 7.03654 5.81619 9.69488 7.29953 12.1291C8.69621 14.4207 10.3829 16.7033 12.7029 17.8766C13.3729 18.2153 14.1871 18.4816 14.7658 18.1616C15.4917 17.7599 15.5808 16.8028 15.6196 16.0895C15.63 15.8953 15.6312 15.7003 15.625 15.5057C15.6175 15.2616 15.5983 15.0178 15.5696 14.7753C15.3021 12.5099 14.2987 10.3661 13.1462 8.34029C11.7121 5.82028 9.95496 3.3086 7.46828 1.99651C6.95328 1.72485 6.39578 1.50276 5.82244 1.50734Z" fill="#47C9B9" stroke="#47C9B9" stroke-width="0.25"/>
</g>
<defs>
<clipPath id="clip0_46_2">
<rect width="20" height="20" fill="white"/>
</clipPath>
</defs>
</svg>