<svg width="400" height="280" viewBox="0 0 400 280" fill="none" xmlns="http://www.w3.org/2000/svg">
<path d="M73.2226 114.45C72.3435 112.253 69.7062 110.934 67.5083 112.253C55.6402 118.846 45.9699 126.758 35.86 135.989C27.0688 143.901 17.3985 150.934 10.805 161.044C1.13472 175.989 -1.50265 198.407 14.3215 210.714C29.7061 222.143 49.9259 213.352 59.5963 198.846C66.1897 189.176 68.3875 177.747 71.0248 166.758C74.1018 152.692 78.4974 137.308 78.4974 122.802C78.9369 118.407 76.2996 115.769 73.2226 114.45ZM51.2446 172.033C49.9259 178.626 48.6072 186.538 44.2116 192.253C38.0578 200.165 26.1897 202.802 22.2336 191.813C16.5193 176.868 31.4644 164.121 40.6952 154.451C45.9699 149.176 51.2446 143.901 56.0798 138.626C54.3215 149.615 53.4424 161.044 51.2446 172.033Z" fill="#90BED0"/>
<path d="M390.585 162.802C384.431 152.692 375.201 145.22 366.409 137.747C355.42 128.516 345.311 119.725 333.003 112.692C330.805 111.373 328.168 112.692 327.289 114.89C324.212 115.769 322.014 118.846 322.014 123.242C322.014 136.868 325.97 151.373 329.047 164.56C331.684 175.989 333.882 187.417 340.036 197.527C349.706 212.912 370.805 223.022 386.629 210.714C401.135 199.286 399.816 177.308 390.585 162.802ZM378.278 191.373C374.761 201.044 364.651 200.604 357.618 193.571C351.904 187.857 350.146 179.505 348.827 171.593C346.629 160.604 345.75 149.176 343.992 138.187C348.827 143.461 354.102 148.736 359.376 154.011C369.047 163.681 383.992 176.428 378.278 191.373Z" fill="#90BED0"/>
<path d="M125.53 76.6484C116.3 86.3187 107.948 96.8681 102.673 107.857C95.6402 122.363 113.662 139.066 125.97 125.879C140.915 110.055 151.904 90.2747 166.849 74.011C173.442 66.978 171.245 57.7473 164.212 52.4725C152.783 44.5604 142.673 34.8901 133.003 24.7802C125.53 17.3077 118.937 5 107.508 5C104.431 5 102.234 7.1978 101.355 9.83517C96.5193 21.2637 109.267 34.4506 115.86 42.8022C117.618 45 119.376 47.1978 121.135 49.3956C117.179 49.3956 113.223 49.3956 109.706 49.3956C97.3985 49.3956 81.1347 48.5165 71.0248 55.989C66.6292 59.5055 65.3105 66.0989 71.0248 69.6154C81.5743 75.7692 95.2007 74.011 107.069 74.8901C113.223 74.8901 119.376 75.7692 125.53 76.6484Z" fill="#5BB1A7"/>
<path d="M329.047 55.989C318.937 48.5165 302.673 49.3956 290.365 49.3956C286.849 49.3956 282.893 49.3956 278.937 49.3956C280.695 47.1978 282.453 45 284.212 42.8022C290.805 34.4506 303.552 21.2637 298.717 9.83517C297.398 7.1978 295.64 5 292.563 5C281.135 5 274.541 17.3077 267.069 24.7802C257.398 34.8901 247.289 44.1209 235.86 52.4725C228.827 57.7473 226.629 66.978 233.223 74.011C248.168 90.2747 259.157 110.055 274.102 125.879C286.409 139.066 304.431 122.363 297.398 107.857C292.124 96.8681 283.772 86.3187 274.541 76.6484C280.695 75.7692 286.849 74.8901 292.563 74.4506C304.431 73.5714 318.058 75.3297 328.607 69.1758C334.761 66.0989 333.882 59.0659 329.047 55.989Z" fill="#5BB1A7"/>
<path d="M245.97 146.099C200.256 137.747 153.662 144.78 112.344 166.319C96.9589 174.231 110.585 197.528 125.97 189.616C161.135 171.154 202.014 164.561 241.135 172.033C256.519 175.11 280.256 179.066 288.607 194.011C297.398 208.956 293.003 236.209 278.058 245.44C260.475 256.429 247.289 239.286 233.223 230.055C219.157 221.264 202.014 216.429 185.75 218.626C167.728 220.824 158.058 232.253 144.431 242.802C127.289 256.429 110.146 245 106.19 225.659C104.431 216.868 89.0468 215.989 87.7281 225.659C82.0138 262.583 122.893 287.637 154.541 268.297C171.245 258.187 179.596 241.044 202.014 245C220.915 248.517 231.904 264.341 249.047 271.374C286.409 287.637 315.86 248.517 316.739 214.231C318.058 171.154 283.333 153.132 245.97 146.099Z" fill="#5BB1A7"/>
<path d="M101.794 208.956C113.662 208.956 113.662 190.495 101.794 190.495C89.9259 190.055 89.9259 208.956 101.794 208.956Z" fill="#5BB1A7"/>
</svg>